# xmcd CD database file
#
# Track frame offsets:
#	150
#	15330
#	33807
#	53710
#	75127
#	94352
#
# Disc length: 1519 seconds
#
# Revision: 0
# Processed by: cddbd v1.5.1PL0 Copyright (c) Steve Scherf et al.
# Submitted via: CDex 1.51
#
DISCID=3105ed06
DTITLE=plane - laundry
DYEAR=2004
DGENRE=Pop
TTITLE0=果実
TTITLE1=R
TTITLE2=シャトルバス
TTITLE3=サーフィン
TTITLE4=近い未来の僕達へ
TTITLE5=少年
EXTD=YEAR: 2004
EXTT0=
EXTT1=
EXTT2=
EXTT3=
EXTT4=
EXTT5=
PLAYORDER=
